<?xml version="1.0" encoding="UTF-8" standalone="no"?>
<!-- Created with Inkscape (http://www.inkscape.org/) -->

<svg
   xmlns:dc="http://purl.org/dc/elements/1.1/"
   xmlns:cc="http://creativecommons.org/ns#"
   xmlns:rdf="http://www.w3.org/1999/02/22-rdf-syntax-ns#"
   xmlns:svg="http://www.w3.org/2000/svg"
   xmlns="http://www.w3.org/2000/svg"
   xmlns:xlink="http://www.w3.org/1999/xlink"
   xmlns:sodipodi="http://sodipodi.sourceforge.net/DTD/sodipodi-0.dtd"
   xmlns:inkscape="http://www.inkscape.org/namespaces/inkscape"
   width="4900"
   height="6000"
   id="svg2"
   version="1.1"
   inkscape:version="0.48+devel r12005"
   sodipodi:docname="Zecora.svg">
  <title
     id="title832">Zecora</title>
  <defs
     id="defs4">
    <linearGradient
       inkscape:collect="always"
       id="linearGradient1096">
      <stop
         style="stop-color:#08525f;stop-opacity:1"
         offset="0"
         id="stop1098" />
      <stop
         style="stop-color:#073742;stop-opacity:1"
         offset="1"
         id="stop1100" />
    </linearGradient>
    <clipPath
       clipPathUnits="userSpaceOnUse"
       id="clipPath1088">
      <path
         style="opacity:0.5;fill:#00ff00;fill-opacity:1;stroke:#ff0000;stroke-width:1px;stroke-linecap:butt;stroke-linejoin:miter;stroke-opacity:1;display:inline"
         d="m 3644,1678 c -46.9388,197.8061 -93.2535,396.1843 -390,365 -114.1475,0.273 -279.5063,-5.9344 -405,44 -5.586,-163.3473 171.7241,-337.1324 407,-322 C 3396.2009,1756.3766 3525.1309,1726.6205 3644,1678 Z"
         id="path1090"
         inkscape:connector-curvature="0"
         sodipodi:nodetypes="ccccc" />
    </clipPath>
    <linearGradient
       inkscape:collect="always"
       xlink:href="#linearGradient1096"
       id="linearGradient1102"
       x1="3018.1265"
       y1="2144.2117"
       x2="2939.8198"
       y2="1784.7153"
       gradientUnits="userSpaceOnUse" />
    <clipPath
       clipPathUnits="userSpaceOnUse"
       id="clipPath1124">
      <path
         style="opacity:0.5;fill:#00ff00;fill-opacity:1;stroke:#ff0000;stroke-width:0.95282954px;stroke-linecap:butt;stroke-linejoin:miter;stroke-opacity:1;display:inline"
         d="m 3480.9452,1459.8043 c 43.6222,187.9319 88.0212,376.0826 -179.307,476.5048 -97.5944,47.1936 -249.6851,121.1935 -334.9057,219.4151 -73.9995,-136.2306 10.9329,-368.4256 218.8199,-456.1855 C 3301.9572,1632.2722 3399.7557,1551.8916 3480.9452,1459.8043 Z"
         id="path1126"
         inkscape:connector-curvature="0"
         sodipodi:nodetypes="ccccc" />
    </clipPath>
    <clipPath
       clipPathUnits="userSpaceOnUse"
       id="clipPath1128">
      <path
         style="opacity:0.5;fill:#00ff00;fill-opacity:1;stroke:#ff0000;stroke-width:0.90659893px;stroke-linecap:butt;stroke-linejoin:miter;stroke-opacity:1;display:inline"
         d="m 3353.4456,1513.0094 c 53.2636,189.5472 107.2539,379.3614 -130.3939,462.0257 -86.0123,40.6445 -220.0213,104.4357 -291.0865,196.5807 -77.412,-140.1166 -16.1082,-365.4125 168.0126,-439.3024 C 3201.79,1672.9272 3285.6364,1599.317 3353.4456,1513.0094 Z"
         id="path1130"
         inkscape:connector-curvature="0"
         sodipodi:nodetypes="ccccc" />
    </clipPath>
  </defs>
  <sodipodi:namedview
     id="base"
     pagecolor="#ffffff"
     bordercolor="#666666"
     borderopacity="1.0"
     inkscape:pageopacity="0.0"
     inkscape:pageshadow="2"
     inkscape:zoom="0.1015"
     inkscape:cx="2450"
     inkscape:cy="3000"
     inkscape:document-units="px"
     inkscape:current-layer="layer12"
     showgrid="false"
     fit-margin-top="0"
     fit-margin-left="0"
     fit-margin-right="0"
     fit-margin-bottom="0"
     inkscape:window-width="1280"
     inkscape:window-height="778"
     inkscape:window-x="-8"
     inkscape:window-y="-8"
     inkscape:window-maximized="1"
     inkscape:object-nodes="true"
     inkscape:snap-nodes="false" />
  <metadata
     id="metadata7">
    <rdf:RDF>
      <cc:Work
         rdf:about="">
        <dc:format>image/svg+xml</dc:format>
        <dc:type
           rdf:resource="http://purl.org/dc/dcmitype/StillImage" />
        <dc:title>Zecora</dc:title>
      </cc:Work>
    </rdf:RDF>
  </metadata>
  <g
     inkscape:groupmode="layer"
     id="layer14"
     inkscape:label="Background"
     sodipodi:insensitive="true"
     style="display:none">
    <rect
       style="color:#000000;fill:#000000;fill-opacity:1;fill-rule:nonzero;stroke:#00ff00;stroke-width:1;stroke-linecap:butt;stroke-linejoin:miter;stroke-miterlimit:4;stroke-opacity:1;stroke-dasharray:none;stroke-dashoffset:0;marker:none;visibility:visible;display:inline;overflow:visible;enable-background:accumulate"
       id="rect1186"
       width="4985.2217"
       height="6078.8179"
       x="-29.55665"
       y="-29.55665" />
  </g>
  <g
     inkscape:groupmode="layer"
     id="layer12"
     inkscape:label="Shadow"
     style="opacity:1;display:none"
     sodipodi:insensitive="true">
    <path
       sodipodi:type="arc"
       style="color:#000000;fill:#000000;fill-opacity:1;fill-rule:nonzero;stroke:none;stroke-width:1px;marker:none;visibility:visible;display:inline;overflow:visible;enable-background:accumulate"
       id="path895"
       sodipodi:cx="3374.3843"
       sodipodi:cy="5561.5762"
       sodipodi:rx="1364.532"
       sodipodi:ry="192.11823"
       d="m 4738.9163,5561.5762 a 1364.532,192.11823 0 1 1 -2729.064,0 A 1364.532,192.11823 0 1 1 4738.9163,5561.5762 Z"
       transform="translate(-29.55665,9.8522167)" />
  </g>
  <g
     inkscape:groupmode="layer"
     id="layer2"
     inkscape:label="Rear Legs"
     style="display:inline"
     sodipodi:insensitive="true">
    <path
       style="fill:#938b9c;fill-opacity:1;stroke:none;display:inline"
       d="m 4213.0327,3899.5794 c -105.1213,640.3794 -149.5056,1219.7336 106.2402,1494.3291 114.166,122.5806 15.5136,147.0717 -90.5654,153.2645 -128.2689,7.4883 -256.6019,1.5855 -384.9029,-5.2249 C 3759.4,5018.4193 3812.1016,4473.6155 3997.0691,3908.2876 Z"
       id="path3986-7"
       inkscape:connector-curvature="0"
       sodipodi:nodetypes="cssccc" />
    <path
       style="fill:#938b9c;fill-opacity:1;stroke:none;display:inline"
       d="m 2262.3935,3352.7037 c -174.7821,278.3515 -60.8668,733.271 34.8328,1081.5599 -162.7155,2.4282 -302.2781,-25.8843 -344.8452,107.9818 -112.5642,353.9945 -123.1298,703.9256 -118.4318,1050.2103 0.8538,62.9347 33.1846,99.6792 88.8239,104.4985 137.6549,11.9234 276.9081,12.5101 414.5109,0 113.7721,-10.3435 78.2431,-52.9929 50.5076,-109.7235 C 2209.5989,5222.7528 2276.3843,4838.5165 2744.8284,4422.0721 Z"
       id="path3978-8"
       inkscape:connector-curvature="0"
       sodipodi:nodetypes="ccssssscc" />
    <path
       style="fill:#5e5b6a;fill-opacity:1;stroke:none"
       d="m 4192.1182,5184.7291 c -133.6087,70.8766 -248.7758,149.6567 -359.6059,230.2955 l -19.7044,-176.1083 C 3915.9089,5165.53 4062.4925,5097.6387 4161.33,5077.5862 Z"
       id="path4000"
       inkscape:connector-curvature="0"
       sodipodi:nodetypes="ccccc" />
    <path
       style="fill:#5e5b6a;fill-opacity:1;stroke:none"
       d="m 1948.8977,4538.7621 c 162.2718,56.9906 318.9938,144.5047 471.9851,252.5381 l -55.7325,111.4651 C 2223.1267,4824.7487 2076.3061,4755.1267 1915.8065,4709.4431 Z"
       id="path3980"
       inkscape:connector-curvature="0"
       sodipodi:nodetypes="ccccc" />
    <path
       style="fill:#5e5b6a;fill-opacity:1;stroke:none"
       d="m 2305.9344,5106.5375 c -172.4144,4.0802 -333.1244,31.5693 -468.5018,109.7235 l 6.9666,212.4803 C 1997.2884,5368.4348 2151.8914,5318.411 2309.4177,5285.9267 Z"
       id="path3982"
       inkscape:connector-curvature="0"
       sodipodi:nodetypes="ccccc" />
    <path
       style="fill:#2b2536;fill-opacity:1;stroke:none"
       d="m 2349.4755,5489.6988 c -145.0641,22.2063 -267.1245,90.4201 -365.7449,205.5138 124.2373,12.3591 248.4745,12.0617 372.7114,-3.4833 C 2445.406,5683.1185 2410.9221,5635.2288 2403.4664,5595.939 Z"
       id="path3984"
       inkscape:connector-curvature="0"
       sodipodi:nodetypes="ccccc" />
    <path
       style="fill:#2b2536;fill-opacity:1;stroke:none"
       d="m 4259.8522,5314.0394 c -155.0878,30.1485 -289.9768,103.5801 -422.4138,182.266 l 8.6207,46.7981 428.5714,8.6206 C 4384.68,5521.9219 4399.8282,5474.698 4333.7438,5412.5616 Z"
       id="path3998"
       inkscape:connector-curvature="0"
       sodipodi:nodetypes="cccccc" />
    <path
       style="fill:#5e5b6a;fill-opacity:1;stroke:none"
       d="m 4160.0985,4230.2956 c -67.0522,-18.6338 -173.8067,-15.5714 -246.3054,2.463 L 3987.6847,3953.202 4200.7389,3953.202 Z"
       id="path4002"
       inkscape:connector-curvature="0"
       sodipodi:nodetypes="ccccc" />
    <path
       style="fill:#5e5b6a;fill-opacity:1;stroke:none"
       d="m 2229.3022,4209.5917 c 160.281,40.3808 344.1033,160.594 465.0185,247.3132 L 2608.9802,4115.543 C 2470.8099,4058.6477 2332.6396,3990.2447 2194.4693,3972.7283 Z"
       id="path897"
       inkscape:connector-curvature="0"
       sodipodi:nodetypes="ccccc" />
    <path
       style="fill:none;stroke:#35313a;stroke-width:44;stroke-linecap:butt;stroke-linejoin:miter;stroke-miterlimit:4;stroke-opacity:1;stroke-dasharray:none"
       d="m 4213.0327,3899.5794 c -105.1213,640.3794 -149.5056,1219.7336 106.2402,1494.3291 114.166,122.5806 15.5136,147.0717 -90.5654,153.2645 -128.2689,7.4883 -256.6019,1.5855 -384.9029,-5.2249 C 3759.4,5018.4193 3812.1016,4473.6155 3997.0691,3908.2876 Z"
       id="path3986"
       inkscape:connector-curvature="0"
       sodipodi:nodetypes="cssccc" />
    <path
       style="fill:none;stroke:#35313a;stroke-width:44;stroke-linecap:butt;stroke-linejoin:miter;stroke-miterlimit:4;stroke-opacity:1;stroke-dasharray:none"
       d="m 2262.3934,3352.7037 c -174.7821,278.3515 -60.8668,733.271 34.8328,1081.5599 -162.7155,2.4282 -302.2781,-25.8843 -344.8452,107.9818 -112.5641,353.9945 -123.1297,703.9256 -118.4317,1050.2103 0.8538,62.9347 33.1846,99.6792 88.8238,104.4985 137.6549,11.9234 276.9081,12.5101 414.5109,0 113.7721,-10.3435 78.2431,-52.9929 50.5076,-109.7235 C 2209.5988,5222.7528 2276.3842,4838.5165 2744.8283,4422.0721 Z"
       id="path3978"
       inkscape:connector-curvature="0"
       sodipodi:nodetypes="ccssssscc" />
    <g
       id="g899">
      <path
         sodipodi:nodetypes="cscc"
         inkscape:connector-curvature="0"
         id="path3996"
         d="m 4144.2713,4494.1605 c 41.1451,-31.0049 47.5084,-77.0433 11.9323,-99.0175 -28.4353,-17.5636 -85.4705,-24.2711 -178.3711,-14.6011 l -16.0099,108.3744"
         style="fill:#968a48;fill-opacity:1;stroke:none" />
      <path
         sodipodi:nodetypes="cscc"
         inkscape:connector-curvature="0"
         id="path3994"
         d="m 4141.6256,4625.6158 c 43.3081,-44.7406 42.4785,-112.1437 16.3528,-132.4079 -34.3599,-26.6509 -114.9202,-18.2433 -208.471,0.6345 l -6.1577,130.5418"
         style="fill:#968a48;fill-opacity:1;stroke:none" />
      <path
         sodipodi:nodetypes="cscc"
         inkscape:connector-curvature="0"
         id="path3992"
         d="m 4138.1137,4741.5147 c 41.9378,-35.2152 42.0247,-96.5175 15.0348,-114.8037 -36.4327,-24.6839 -124.7802,-14.7936 -235.6609,1.3679 l -20.9359,115.7635"
         style="fill:#968a48;fill-opacity:1;stroke:none" />
      <path
         sodipodi:nodetypes="cscc"
         inkscape:connector-curvature="0"
         id="path3990"
         d="m 4160.0985,4878.0788 c 36.4969,-45.8657 27.8967,-108.4114 -11.423,-132.7268 -44.8702,-27.7477 -141.8244,-17.1492 -271.8282,2.1849 l 0,121.9212"
         style="fill:#968a48;fill-opacity:1;stroke:none" />
      <path
         sodipodi:nodetypes="csscc"
         inkscape:connector-curvature="0"
         id="path3988"
         d="m 3862.9626,4995.0724 c 81.7116,2.0229 208.4398,-3.1624 279.9015,-21.2573 54.7304,-13.8583 51.597,-100.3937 6.3692,-111.1907 C 4084.5812,4847.1904 3942.8042,4862.1537 3855.7848,4865.8557 Z"
         style="fill:#968a48;fill-opacity:1;stroke:none" />
    </g>
    <path
       style="fill:#ffffff;fill-opacity:0.37647059;stroke:none"
       d="m 4060.2071,4377.897 c 8.4599,203.6468 3.5669,407.2935 -2.8284,610.9403 l 62.2254,-7.0711 C 4122.9283,4781.5432 4122.7768,4580.4513 4111.1188,4376.4828 Z"
       id="path1188"
       inkscape:connector-curvature="0"
       sodipodi:nodetypes="ccccc" />
    <path
       sodipodi:nodetypes="cscc"
       inkscape:connector-curvature="0"
       id="path3996-9"
       d="m 4144.2713,4494.1605 c 41.1451,-31.0049 47.5084,-77.0433 11.9323,-99.0175 -28.4353,-17.5636 -85.4705,-24.2711 -178.3711,-14.6011 l -16.0099,108.3744"
       style="fill:none;stroke:#8a6918;stroke-width:29;stroke-linecap:butt;stroke-linejoin:miter;stroke-miterlimit:4;stroke-opacity:1;stroke-dasharray:none;display:inline" />
    <path
       sodipodi:nodetypes="cscc"
       inkscape:connector-curvature="0"
       id="path3994-1"
       d="m 4141.6256,4625.6158 c 43.3081,-44.7406 42.4785,-112.1437 16.3528,-132.4079 -34.3599,-26.6509 -114.9202,-18.2433 -208.471,0.6345 l -6.1577,130.5418"
       style="fill:none;stroke:#8a6918;stroke-width:29;stroke-linecap:butt;stroke-linejoin:miter;stroke-miterlimit:4;stroke-opacity:1;stroke-dasharray:none;display:inline" />
    <path
       sodipodi:nodetypes="cscc"
       inkscape:connector-curvature="0"
       id="path3992-7"
       d="m 4138.1137,4741.5147 c 41.9378,-35.2152 42.0247,-96.5175 15.0348,-114.8037 -36.4327,-24.6839 -124.7802,-14.7936 -235.6609,1.3679 l -20.9359,115.7635"
       style="fill:none;stroke:#8a6918;stroke-width:29;stroke-linecap:butt;stroke-linejoin:miter;stroke-miterlimit:4;stroke-opacity:1;stroke-dasharray:none;display:inline" />
    <path
       sodipodi:nodetypes="cscc"
       inkscape:connector-curvature="0"
       id="path3990-7"
       d="m 4160.0985,4878.0788 c 36.4969,-45.8657 27.8967,-108.4114 -11.423,-132.7268 -44.8702,-27.7477 -141.8244,-17.1492 -271.8282,2.1849 l 0,121.9212"
       style="fill:none;stroke:#8a6918;stroke-width:29;stroke-linecap:butt;stroke-linejoin:miter;stroke-miterlimit:4;stroke-opacity:1;stroke-dasharray:none;display:inline" />
    <path
       sodipodi:nodetypes="csscc"
       inkscape:connector-curvature="0"
       id="path3988-4"
       d="m 3862.9626,4995.0724 c 81.7116,-7.5212 208.4398,-12.4739 279.9015,-21.2573 56.036,-6.8874 51.597,-100.3937 6.3692,-111.1907 C 4084.5812,4847.1904 3942.8042,4862.1537 3855.7848,4865.8557 Z"
       style="fill:none;stroke:#8a6918;stroke-width:29;stroke-linecap:butt;stroke-linejoin:miter;stroke-miterlimit:4;stroke-opacity:1;stroke-dasharray:none;display:inline" />
  </g>
  <g
     inkscape:groupmode="layer"
     id="layer3"
     inkscape:label="Tail"
     style="display:inline"
     sodipodi:insensitive="true">
    <path
       style="fill:#6e6773;fill-opacity:1;stroke:none"
       d="m 1140.3941,3201.9704 c 7.7949,44.8682 14.5421,89.6316 -41.8719,128.0789 28.6314,16.0471 60.7654,30.8432 0,78.8177 72.6315,25.3752 82.3619,63.3306 56.6502,108.3744 -168.19057,239.6553 -46.7599,418.6921 59.1133,600.9852 197.6564,267.13 362.2762,557.508 384.2365,948.2759 -275.2473,222.6749 -584.3882,324.8391 -918.71924,337.4384 180.00778,-271.2799 141.76239,-548.2978 110.83743,-825.1232 -33.96624,294.6017 -75.02104,586.5146 -295.5665,810.3449 C 345.55893,5373.2366 251.70537,5276.9109 160.09852,5177.3399 541.69467,4932.1219 502.81624,4578.924 534.48276,4243.8424 509.42054,3920.2174 502.8927,3602.7705 748.76847,3369.4581 859.97023,3274.9486 989.78622,3217.6676 1140.3941,3201.9704 Z"
       id="path932"
       inkscape:connector-curvature="0"
       sodipodi:nodetypes="ccccccccccccc" />
    <path
       style="fill:#d4ced5;fill-opacity:1;stroke:none"
       d="m 1098.5222,3332.5123 c -198.29508,72.8814 -369.60481,167.5587 -399.01481,376.8473 -30.76243,149.8839 -24.01231,295.0787 -2.46305,438.4236 66.76822,579.9166 -133.7552,898.3523 -364.53202,1187.1922 l 165.02463,64.0394 c 186.33429,-228.4249 265.68795,-508.2005 288.17734,-815.271 35.83826,285.1476 55.9364,568.2643 -108.37439,827.5862 l 300.49261,-41.8719 C 1198.5293,4956.8727 1154.9805,4648.1072 1078.8177,4381.7734 992.08661,4131.5273 814.64249,3865.641 901.47783,3645.3202 940.83573,3558.1949 1005.8699,3478.7724 1110.8374,3411.33 1136.2097,3371.6586 1144.9086,3339.5661 1098.5222,3332.5123 Z"
       id="path930"
       inkscape:connector-curvature="0"
       sodipodi:nodetypes="cccccccccccc" />
    <path
       style="fill:#d4ced5;fill-opacity:1;stroke:none"
       d="m 1142.8571,3201.9704 c 12.2559,50.0673 -1.5827,93.6109 -41.8719,130.5419 49.5411,13.4628 25.7011,48.9399 12.3153,81.2808 44.5536,21.9877 55.3648,53.6162 54.1872,88.67 79.1135,-78.735 178.0317,-83.2022 283.2512,-64.0395 151.8883,55.8388 303.7767,77.885 455.665,81.2808 l 337.4385,-36.9458 61.5763,-246.3054 c -195.1436,38.9262 -389.6472,86.8115 -591.133,36.9458 C 1523.8095,3240.7169 1333.3333,3180.6665 1142.8571,3201.9704 Z"
       id="path928"
       inkscape:connector-curvature="0"
       sodipodi:nodetypes="cccccccccc" />
    <path
       style="fill:none;stroke:#35313a;stroke-width:29;stroke-linecap:butt;stroke-linejoin:miter;stroke-miterlimit:4;stroke-opacity:1;stroke-dasharray:none"
       d="m 334.97537,5334.9754 c 358.44277,-434.4251 411.89099,-798.6923 353.44827,-1270.936 -58.83318,-475.3987 90.4844,-624.7343 406.40396,-730.2955"
       id="path4007"
       inkscape:connector-curvature="0"
       sodipodi:nodetypes="csc" />
    <path
       style="fill:none;stroke:#35313a;stroke-width:29;stroke-linecap:butt;stroke-linejoin:miter;stroke-miterlimit:4;stroke-opacity:1;stroke-dasharray:none"
       d="m 1100.9852,3417.4877 c -356.36187,246.8616 -210.01854,523.7559 -87.4384,791.8719 177.2139,387.6149 162.2106,810.6071 -36.94582,1162.5616"
       id="path4009"
       inkscape:connector-curvature="0"
       sodipodi:nodetypes="csc" />
    <path
       style="font-size:xx-small;font-style:normal;font-variant:normal;font-weight:normal;font-stretch:normal;text-indent:0;text-align:start;text-decoration:none;line-height:normal;letter-spacing:normal;word-spacing:normal;text-transform:none;direction:ltr;block-progression:tb;writing-mode:lr-tb;text-anchor:start;baseline-shift:baseline;color:#000000;color-interpolation:sRGB;color-interpolation-filters:linearRGB;fill:#35313a;fill-opacity:1;stroke:none;stroke-width:29;marker:none;visibility:visible;display:inline;overflow:visible;enable-background:accumulate;clip-rule:nonzero;font-family:sans-serif;-inkscape-font-specification:sans-serif"
       d="m 1236.9375,4404.9375 c 126.5797,178.1992 223.3964,480.596 169.9687,773.5 l 28.5313,5.1875 c 55.1576,-302.388 -43.3844,-610.4 -174.8437,-795.4688 C 1116.203,4184.8827 960.35865,3895.8833 1028.6281,3641.87 919.55764,3884.1621 1090.9929,4199.4765 1236.9375,4404.9375 Z"
       id="path4011"
       inkscape:connector-curvature="0"
       sodipodi:nodetypes="sccscs" />
    <path
       style="font-size:xx-small;font-style:normal;font-variant:normal;font-weight:normal;font-stretch:normal;text-indent:0;text-align:start;text-decoration:none;line-height:normal;letter-spacing:normal;word-spacing:normal;text-transform:none;direction:ltr;block-progression:tb;writing-mode:lr-tb;text-anchor:start;baseline-shift:baseline;color:#000000;color-interpolation:sRGB;color-interpolation-filters:linearRGB;fill:#35313a;fill-opacity:1;stroke:none;stroke-width:28;marker:none;visibility:visible;display:inline;overflow:visible;enable-background:accumulate;clip-rule:nonzero;font-family:sans-serif;-inkscape-font-specification:sans-serif"
       d="m 1236.3286,4603.5824 c 15.5748,111.8069 17.576,477.9641 -109.5161,714.9176 l 24.6875,13.25 C 1282.8347,5086.8865 1277.404,4715.9135 1236.3286,4603.5824 Z"
       id="path4013"
       inkscape:connector-curvature="0"
       sodipodi:nodetypes="cccc" />
    <path
       style="fill:none;stroke:#35313a;stroke-width:29;stroke-linecap:butt;stroke-linejoin:miter;stroke-miterlimit:4;stroke-opacity:1;stroke-dasharray:none"
       d="m 1135.468,3205.665 c 23.1767,47.6191 12.317,85.3859 -40.6404,128.0789 70.7205,7.4778 33.784,58.2196 6.1576,83.7438 44.9647,9.6901 79.5817,38.0396 62.8079,105.9113"
       id="path4023"
       inkscape:connector-curvature="0"
       sodipodi:nodetypes="cccc" />
    <path
       style="fill:#6e6773;fill-opacity:1;stroke:none"
       d="m 1323.8916,3213.0542 c -24.5236,78.6112 -15.037,147.5053 6.1577,213.0542 l -82.5124,17.2414 C 1230.5029,3364.1215 1203.3724,3284.8933 1236.4532,3205.665 Z"
       id="path4025"
       inkscape:connector-curvature="0"
       sodipodi:nodetypes="ccccc" />
    <path
       style="fill:#6e6773;fill-opacity:1;stroke:none"
       d="m 1592.3645,3480.2956 c -19.4123,-75.1729 -8.3112,-145.6515 14.7783,-214.2857 l 89.9015,18.4729 C 1683.8672,3357.461 1681.1929,3427.8135 1681.0345,3497.537 Z"
       id="path4027"
       inkscape:connector-curvature="0"
       sodipodi:nodetypes="ccccc" />
    <path
       style="fill:#6e6773;fill-opacity:1;stroke:none"
       d="m 1923.6453,3514.7783 c -16.2446,-73.8916 -14.1641,-147.7832 -11.0837,-221.6748 l 77.5862,-3.6946 C 1986.6577,3362.1099 1990.7664,3436.3307 2003.6946,3512.3153 Z"
       id="path4029"
       inkscape:connector-curvature="0"
       sodipodi:nodetypes="ccccc" />
    <path
       style="fill:none;stroke:#35313a;stroke-width:44;stroke-linecap:butt;stroke-linejoin:miter;stroke-miterlimit:9;stroke-opacity:1;stroke-dasharray:none"
       d="m 2325.1231,3217.9803 c -239.8071,70.608 -481.5137,111.1234 -748.7684,34.4828 -642.09104,-184.1325 -999.97681,144.3862 -1044.335,573.8916 -36.9627,357.8972 140.4234,995.1637 -375.61576,1352.2167 92.98661,119.5393 209.15529,189.1479 344.82758,216.7488 224.17071,-246.6251 268.20419,-592.9395 282.01971,-848.5222 55.35684,222.6974 56.33946,586.8173 -105.91134,858.3744 346.59251,-6.874 652.51031,-114.0241 919.95071,-348.5221 -6.4017,-343.3788 -170.872,-603.4296 -339.9014,-860.8375 -132.2889,-201.4573 -253.7992,-394.1743 -140.3941,-610.8374 69.1301,-132.0746 191.7677,-199.706 411.33,-125.6157 253.566,85.5646 447.184,71.0525 716.7488,22.1674"
       id="path4005"
       inkscape:connector-curvature="0"
       sodipodi:nodetypes="csscccccsssc" />
  </g>
  <g
     inkscape:groupmode="layer"
     id="layer4"
     inkscape:label="Body + Forward Legs"
     style="display:inline"
     sodipodi:insensitive="true">
    <path
       style="fill:#d4ced5;fill-opacity:1;stroke:none"
       d="m 4522.1675,2931.0345 c 88.6153,427.0452 193.8295,845.3941 -418.8099,1110.4125 l -31.2589,134.4076 -435.1139,88.1904 42.8182,-124.0735 c -143.8515,9.8068 -290.2536,-0.1063 -443.3498,-36.5232 l -39.4089,-1133.005 C 3344.5156,3043.0872 3481.9408,3075.5464 3610.8374,3073.8916 Z"
       id="path934"
       inkscape:connector-curvature="0"
       sodipodi:nodetypes="ccccccccc" />
    <path
       style="fill:#d4ced5;fill-opacity:1;stroke:none;display:inline"
       d="m 3630.5418,3076.1072 c -136.9876,20.1439 -276.3281,-39.1307 -418.7192,-95.8116 -310.5504,-123.6193 -620.3365,-96.3911 -827.5862,115.7635 -262.086,268.2886 -215.7457,556.3883 -111.1362,831.7909 96.3946,253.7759 258.2562,448.4258 451.0377,596.7806 -126.9296,28.5779 -189.3548,17.4316 -169.1487,113.4051 60.7035,288.3249 171.402,609.9975 177.6476,870.8212 2.0936,87.4311 18.9246,182.4052 132.3648,182.8724 134.1545,0.5524 269.0884,7.878 397.0944,-10.4499 73.3039,-10.4956 57.5934,-65.046 1.7417,-142.8146 -262.3371,-365.2815 -308.6601,-760.0946 -113.2068,-1191.2833 33.7783,-74.5183 68.364,-167.7757 94.7455,-271.377 1.2969,-5.0929 2.574,-10.2107 3.8301,-15.3526"
       id="path4032-3"
       inkscape:connector-curvature="0"
       sodipodi:nodetypes="cssscsssssssc" />
    <path
       style="fill:#d4ced5;fill-opacity:1;stroke:none;display:inline"
       d="m 3692.409,4107.7382 c -2.5085,5.8449 -4.9975,11.7216 -7.4668,17.6294 -169.5177,405.5691 -246.5777,957.9642 -224.3616,1434.812 3.7827,81.1924 42.0765,118.4167 82.0244,147.0782 132.3016,94.9226 298.5928,91.9337 461.0336,77.7817 209.4598,-18.2483 68.8429,-139.0173 36.7695,-213.5462 -198.8797,-462.1361 -68.9861,-987.1603 43.7374,-1453.7888 1.1553,-4.7828 2.3089,-9.5594 3.4603,-14.3298"
       id="path4078-5"
       inkscape:connector-curvature="0"
       sodipodi:nodetypes="cssssssc" />
    <path
       style="fill:#6e6773;fill-opacity:1;stroke:none"
       d="M 2373.1527,3105.9113 2411.33,3248.7685 2282.0197,3242.6109 Z"
       id="path4034"
       inkscape:connector-curvature="0" />
    <path
       style="fill:#6e6773;fill-opacity:1;stroke:none"
       d="m 2428.5714,3059.1133 177.3399,66.5025 L 2607.1428,2951.9705 Z"
       id="path4036"
       inkscape:connector-curvature="0"
       sodipodi:nodetypes="cccc" />
    <path
       style="fill:#6e6773;fill-opacity:1;stroke:none"
       d="m 2635.468,2938.4237 203.2019,116.995 L 2913.7931,2901.4779 Z"
       id="path4038"
       inkscape:connector-curvature="0" />
    <path
       style="fill:#6e6773;fill-opacity:1;stroke:none"
       d="m 2923.6453,2913.7931 205.665,224.138 L 3248.7685,2996.3054 Z"
       id="path4040"
       inkscape:connector-curvature="0" />
    <path
       style="fill:#6e6773;fill-opacity:1;stroke:none"
       d="m 3251.2315,3003.6946 368.2266,764.7783 C 3586.5874,3540.4101 3560.4659,3311.3831 3550.4926,3080.0493 Z"
       id="path4042"
       inkscape:connector-curvature="0"
       sodipodi:nodetypes="cccc" />
    <path
       style="fill:#6e6773;fill-opacity:1;stroke:none"
       d="m 3568.9655,3083.7439 c 173.2348,228.6909 410.5576,449.0041 586.2069,559.1133 C 4010.5329,3453.8229 3862.7887,3269.4458 3724.1379,3071.4286 Z"
       id="path4044"
       inkscape:connector-curvature="0"
       sodipodi:nodetypes="cccc" />
    <path
       style="fill:#6e6773;fill-opacity:1;stroke:none"
       d="m 2472,4282 c 232.8671,-33.9198 496.232,-11.5224 712,-24 l -94,229 C 2942.9581,4477.6248 2746.679,4427.0123 2627,4449 Z"
       id="path4070"
       inkscape:connector-curvature="0"
       sodipodi:nodetypes="ccccc" />
    <path
       style="fill:#6e6773;fill-opacity:1;stroke:none"
       d="m 3031,4917 c -128.3218,-1.2534 -266.4882,-1.6716 -405,37 l -31,-127 C 2736.6444,4791.2146 2882.3557,4777.119 3032,4784 Z"
       id="path4072"
       inkscape:connector-curvature="0"
       sodipodi:nodetypes="ccccc" />
    <path
       style="fill:#6e6773;fill-opacity:1;stroke:none"
       d="m 2706,5225 c 100.9209,-69.9784 231.1104,-114.631 354,-116 l 38,128 C 2974.0419,5258.8102 2848.2785,5295.9659 2719,5363 Z"
       id="path4074"
       inkscape:connector-curvature="0"
       sodipodi:nodetypes="ccccc" />
    <path
       style="fill:#222028;fill-opacity:1;stroke:none"
       d="m 3221,5480 c -127.3855,30.7879 -240.5353,83.8578 -307,210 l 341,-7 C 3333.9669,5670.9593 3310.2865,5627.0933 3302,5588 Z"
       id="path4076"
       inkscape:connector-curvature="0"
       sodipodi:nodetypes="ccccc" />
    <path
       style="fill:#6e6773;fill-opacity:1;stroke:none"
       d="m 4058.7929,4237.8899 c -144.0012,-25.104 -282.088,3.0211 -418.6072,45.2548 l 43.8406,-120.2081 C 3817.7388,4105.7857 3947.3124,4034.1487 4102.6335,4052.6279 Z"
       id="path4080"
       inkscape:connector-curvature="0"
       sodipodi:nodetypes="ccccc" />
    <path
       style="fill:#6e6773;fill-opacity:1;stroke:none"
       d="m 3932.9279,4936.5114 c -108.0549,2.645 -204.6542,70.8904 -271.529,135.7645 C 3753.3228,5067.8547 3845.2467,5058.5636 3937.1706,5079.347 Z"
       id="path4082"
       inkscape:connector-curvature="0"
       sodipodi:nodetypes="cccc" />
    <path
       style="fill:#6e6773;fill-opacity:1;stroke:none"
       d="m 3825.4477,5225.011 c -122.421,-26.3713 -243.3844,-38.1665 -362.0387,-26.8701 l -1.4142,135.7645 C 3603.6204,5353.9126 3712.9208,5285.0253 3825.4477,5225.011 Z"
       id="path4084"
       inkscape:connector-curvature="0"
       sodipodi:nodetypes="cccc" />
    <path
       style="fill:#222028;fill-opacity:1;stroke:none"
       d="m 4002.2244,5479.5694 c -189.2541,48.0497 -311.8562,146.8819 -422.8499,254.5585 140.8925,58.6903 289.5488,74.761 445.4773,50.9116 C 4155.0049,5759.7509 4110.1712,5695.5764 4075.7635,5633.7187 Z"
       id="path4086"
       inkscape:connector-curvature="0"
       sodipodi:nodetypes="ccccc" /><!--S^i^g^m^a-->
    <path
       style="fill:none;stroke:#35313a;stroke-width:44;stroke-linecap:butt;stroke-linejoin:miter;stroke-miterlimit:4;stroke-opacity:1;stroke-dasharray:none"
       d="m 3630.5418,3076.1072 c -136.9876,20.1439 -276.3281,-39.1307 -418.7192,-95.8116 -310.5504,-123.6193 -620.3365,-96.3911 -827.5862,115.7635 -262.086,268.2886 -215.7457,556.3883 -111.1362,831.7909 96.3946,253.7759 258.2562,448.4258 451.0377,596.7806 -126.9296,28.5779 -189.3548,17.4316 -169.1487,113.4051 60.7035,288.3249 171.402,609.9975 177.6476,870.8212 2.0936,87.4311 18.9246,182.4052 132.3648,182.8724 134.1545,0.5524 269.0884,7.878 397.0944,-10.4499 73.3039,-10.4956 57.5934,-65.046 1.7417,-142.8146 -262.3371,-365.2815 -308.6601,-760.0946 -113.2068,-1191.2833 33.7783,-74.5183 68.364,-167.7757 94.7455,-271.377 1.2969,-5.0929 2.574,-10.2107 3.8301,-15.3526"
       id="path4032"
       inkscape:connector-curvature="0"
       sodipodi:nodetypes="cssscsssssssc" />
    <path
       style="font-size:xx-small;font-style:normal;font-variant:normal;font-weight:normal;font-stretch:normal;text-indent:0;text-align:start;text-decoration:none;line-height:normal;letter-spacing:normal;word-spacing:normal;text-transform:none;direction:ltr;block-progression:tb;writing-mode:lr-tb;text-anchor:start;baseline-shift:baseline;color:#000000;color-interpolation:sRGB;color-interpolation-filters:linearRGB;fill:#35313a;fill-opacity:1;stroke:none;stroke-width:44;marker:none;visibility:visible;display:inline;overflow:visible;enable-background:accumulate;clip-rule:nonzero;font-family:sans-serif;-inkscape-font-specification:sans-serif"
       d="m 3229.7608,3383.43 c 64.1065,205.0663 48.3831,465.893 -1.917,671.7888 -1.239,5.0715 -2.5018,10.1318 -3.7813,15.1562 l 42.625,10.8438 c 1.3143,-5.1615 2.6017,-10.3191 3.875,-15.5313 C 3322.2505,3854.1108 3340.6542,3576.3637 3229.7608,3383.43 Z"
       id="path4032-6"
       inkscape:connector-curvature="0"
       sodipodi:nodetypes="csccsc" />
    <path
       style="fill:none;stroke:#35313a;stroke-width:44;stroke-linecap:butt;stroke-linejoin:miter;stroke-miterlimit:4;stroke-opacity:1;stroke-dasharray:none"
       d="m 3683,4128 c -151.5357,12.012 -298.4599,0.9663 -442,-27"
       id="path4068"
       inkscape:connector-curvature="0"
       sodipodi:nodetypes="cc" />
    <path
       style="fill:none;stroke:#35313a;stroke-width:44;stroke-linecap:butt;stroke-linejoin:miter;stroke-miterlimit:4;stroke-opacity:1;stroke-dasharray:none"
       d="m 3692.409,4107.7382 c -2.5085,5.8449 -4.9975,11.7216 -7.4668,17.6294 -169.5177,405.5691 -246.5777,957.9642 -224.3616,1434.812 3.7827,81.1924 42.0765,118.4167 82.0244,147.0782 132.3016,94.9226 298.5928,91.9337 461.0336,77.7817 209.4598,-18.2483 68.8429,-139.0173 36.7695,-213.5462 -198.8797,-462.1361 -68.9861,-987.1603 43.7374,-1453.7888 1.1553,-4.7828 2.3089,-9.5594 3.4603,-14.3298"
       id="path4078"
       inkscape:connector-curvature="0"
       sodipodi:nodetypes="cssssssc" />
    <path
       style="fill:none;stroke:#35313a;stroke-width:44;stroke-linecap:butt;stroke-linejoin:miter;stroke-miterlimit:4;stroke-opacity:1;stroke-dasharray:none"
       d="m 4099.8051,4042.7284 c 345.4604,-153.7543 615.181,-383.7743 424.2641,-1077.6307"
       id="path4088"
       inkscape:connector-curvature="0"
       sodipodi:nodetypes="cc" />
    <path
       style="font-size:xx-small;font-style:normal;font-variant:normal;font-weight:normal;font-stretch:normal;text-indent:0;text-align:start;text-decoration:none;line-height:normal;letter-spacing:normal;word-spacing:normal;text-transform:none;direction:ltr;block-progression:tb;writing-mode:lr-tb;text-anchor:start;baseline-shift:baseline;color:#000000;color-interpolation:sRGB;color-interpolation-filters:linearRGB;fill:#35313a;fill-opacity:1;stroke:none;stroke-width:44;marker:none;visibility:visible;display:inline;overflow:visible;enable-background:accumulate;clip-rule:nonzero;font-family:sans-serif;-inkscape-font-specification:sans-serif"
       d="m 3672.1875,4099.0625 c -2.5362,5.9094 -5.0353,11.8409 -7.5313,17.8125 l 40.5938,16.9688 c 2.4427,-5.8441 4.8941,-11.6572 7.375,-17.4376 29.4758,-68.6778 52.6399,-143.7775 103.1645,-197.0714 C 3733.314,3956.041 3702.324,4028.8454 3672.1875,4099.0625 z m 394.0313,-0.8437 c -1.1509,4.7684 -2.3136,9.5302 -3.4688,14.3124 l 42.7812,10.3438 c 1.1555,-4.7834 2.3169,-9.5714 3.4688,-14.3438 13.5299,-56.0564 23.7669,-139.303 8.3515,-190.3592 C 4104.9361,3964.1157 4079.7381,4042.2064 4066.2188,4098.2188 Z"
       id="path4078-9"
       inkscape:connector-curvature="0"
       sodipodi:nodetypes="sccscssccscs" />
  </g>
  <g
     inkscape:groupmode="layer"
     id="layer5"
     inkscape:label="Cutie Mark"
     style="display:inline"
     sodipodi:insensitive="true">
    <path
       style="fill:#6e6773;fill-opacity:1;stroke:none"
       d="m 3092,3378 54,79 L 3186,3365 Z"
       id="path863"
       inkscape:connector-curvature="0" />
    <path
       style="fill:#6e6773;fill-opacity:1;stroke:none"
       d="m 3191,3564 4,87 L 3264,3600 Z"
       id="path865"
       inkscape:connector-curvature="0" />
    <path
       style="fill:#6e6773;fill-opacity:1;stroke:none"
       d="m 3181,3736 -35,57 L 3256,3796 Z"
       id="path867"
       inkscape:connector-curvature="0" />
    <path
       style="fill:#6e6773;fill-opacity:1;stroke:none"
       d="m 3084,3874 45,124 L 3019,3952 Z"
       id="path869"
       inkscape:connector-curvature="0" />
    <path
       style="fill:#6e6773;fill-opacity:1;stroke:none"
       d="M 2879,3974 2775,3971 2836,4083 Z"
       id="path871"
       inkscape:connector-curvature="0" />
    <path
       style="fill:#6e6773;fill-opacity:1;stroke:none"
       d="m 2588,3893 76,57 L 2559,4008 Z"
       id="path873"
       inkscape:connector-curvature="0" />
    <path
       style="fill:#6e6773;fill-opacity:1;stroke:none"
       d="m 2483,3721 46,78 L 2423,3805 Z"
       id="path875"
       inkscape:connector-curvature="0" />
    <path
       style="fill:#6e6773;fill-opacity:1;stroke:none"
       d="m 2474,3580 18,-98 L 2376,3491 Z"
       id="path877"
       inkscape:connector-curvature="0" />
    <path
       style="fill:#6e6773;fill-opacity:1;stroke:none"
       d="m 2519,3392 66,-72 L 2479,3294 Z"
       id="path879"
       inkscape:connector-curvature="0"
       sodipodi:nodetypes="cccc" />
    <path
       style="fill:#6e6773;fill-opacity:1;stroke:none"
       d="M 2693,3252 2793,3242 2730,3135 Z"
       id="path881"
       inkscape:connector-curvature="0" />
    <path
       style="fill:#6e6773;fill-opacity:1;stroke:none"
       d="m 2925,3241 98,75 L 3032,3198 Z"
       id="path883"
       inkscape:connector-curvature="0" />
    <path
       style="fill:none;stroke:#6e6773;stroke-width:29;stroke-linecap:butt;stroke-linejoin:miter;stroke-miterlimit:4;stroke-opacity:1;stroke-dasharray:none"
       d="m 2990,3394 c 143.3991,117.0003 156.6511,272.4839 35,412 -95.225,109.2092 -271.2125,109.6612 -390,16 -123.8275,-97.6351 -146.0577,-227.452 -57,-348 87.439,-118.357 296.0561,-82.7369 353,-19 86.4736,96.7892 84.84,202.7872 14,278 -70.7514,75.1187 -193.7347,101.5524 -270,23 -53.7299,-55.3412 -84.2992,-141.8395 -21,-215 58.4239,-67.5257 181.0163,-66.9946 235,-6 42.486,48.0037 36.4676,106.9217 -2,149 -31.309,34.2477 -84.0007,51.5084 -140,15 -46.0613,-30.0294 -48.2395,-81.8257 -18,-119 29.2121,-35.9114 73.1086,-34.8052 98,-6"
       id="path885"
       inkscape:connector-curvature="0"
       sodipodi:nodetypes="csssssssssssc" />
    <path
       style="font-size:xx-small;font-style:normal;font-variant:normal;font-weight:normal;font-stretch:normal;text-indent:0;text-align:start;text-decoration:none;line-height:normal;letter-spacing:normal;word-spacing:normal;text-transform:none;direction:ltr;block-progression:tb;writing-mode:lr-tb;text-anchor:start;baseline-shift:baseline;color:#000000;color-interpolation:sRGB;color-interpolation-filters:linearRGB;fill:#6e6773;fill-opacity:1;stroke:none;stroke-width:29;marker:none;visibility:visible;display:inline;overflow:visible;enable-background:accumulate;clip-rule:nonzero;font-family:sans-serif;-inkscape-font-specification:sans-serif"
       d="m 2577.3329,3389.8122 c 86.6696,-76.0408 281.1369,-84.4079 403.5109,15.4378 69.4313,56.6495 105.9447,121.0945 111.5937,187.5312 5.649,66.4368 -19.4744,136.1371 -78.375,203.6876 l 21.875,19.0624 c 62.7505,-71.9656 91.8203,-149.7846 85.4063,-225.2187 -6.4141,-75.4341 -46.8577,-148.9208 -122.1876,-207.5625 C 2870.1285,3282.3064 2629.6634,3277.853 2577.3329,3389.8122 Z M 2779.125,3538.25 c -22.1279,0.7632 -44.4794,11.8234 -61.375,32.5938 -17.3076,21.2767 -25.7775,47.4053 -22.75,73.0312 3.0275,25.6259 17.9557,50.2407 44.0938,67.2812 l 15.8124,-24.3124 c -19.9232,-12.9889 -29.1079,-29.3019 -31.125,-46.375 -2.017,-17.0732 3.5369,-35.415 16.4688,-51.3126 12.3165,-15.141 26.5288,-21.4772 39.875,-21.9374 13.3462,-0.4603 25.2625,5.8088 35.9062,16.25 25.0858,24.6084 16.1042,53.4668 -33.9251,42.8333 57.9707,59.3666 98.2356,-11.3 55.8627,-61.7709 C 2823.0772,3546.7936 2801.2529,3537.4868 2779.125,3538.25 Z"
       id="path885-0"
       inkscape:connector-curvature="0"
       sodipodi:nodetypes="cssccsscsssccsssscss" />
  </g>
  <g
     inkscape:groupmode="layer"
     id="layer6"
     inkscape:label="Neck"
     style="display:inline"
     sodipodi:insensitive="true">
    <path
       style="fill:#dfb621;fill-opacity:1;stroke:none"
       d="m 3387,2492 c 226.9895,65.2482 436.0971,56.7339 642,35 L 3814,2191 Z"
       id="path924"
       inkscape:connector-curvature="0"
       sodipodi:nodetypes="cccc" />
    <path
       style="fill:#dfb621;fill-opacity:1;stroke:none"
       d="m 3380,2485 c -6.1083,48.0311 -7.2015,107.2481 15,163 373.2233,84.347 748.4682,37.9436 1024,-63 -7.7731,-39.3181 -35.5608,-81.3485 -62,-118 C 4034.0767,2530.5995 3710.7667,2586.0814 3380,2485 Z"
       id="path914"
       inkscape:connector-curvature="0"
       sodipodi:nodetypes="ccccc" />
    <path
       style="fill:#dfb621;fill-opacity:1;stroke:none"
       d="m 3427,2657 c -3.8492,58.8386 -4.6505,113.9946 39,157 353.1673,61.5668 688.5488,3.8359 994,-91 1.0163,-46.9366 -12.175,-97.2317 -48,-137"
       id="path916"
       inkscape:connector-curvature="0"
       sodipodi:nodetypes="cccc" />
    <path
       style="fill:#dfb621;fill-opacity:1;stroke:none"
       d="m 4456,2727 c 37.9866,48.6625 35.892,87.8379 50,126 -305.2012,119.7931 -662.8584,166.8494 -1014,106 -23.7946,-44.6667 -35.9987,-93.3333 -20,-138"
       id="path918"
       inkscape:connector-curvature="0"
       sodipodi:nodetypes="cccc" />
    <path
       style="fill:#dfb621;fill-opacity:1;stroke:none"
       d="m 4502,2857 c 25.8604,43.1827 40.7936,89.4875 48,138 -244.8649,138.211 -680.675,189.7621 -1029,87 -11.0337,-38.6667 -15.7044,-81.3333 -11,-120"
       id="path920"
       inkscape:connector-curvature="0"
       sodipodi:nodetypes="cccc" />
    <path
       style="fill:#ffffff;fill-opacity:0.37647059;stroke:none"
       d="m 4155,2508 c 118.9593,201.9203 116.1836,389.2919 138,587 l 136,-45 C 4409.9405,2859.2051 4369.2604,2667.1312 4280,2485 Z"
       id="path922"
       inkscape:connector-curvature="0"
       sodipodi:nodetypes="ccccc" />
    <path
       style="fill:none;stroke:#8a6918;stroke-width:29;stroke-linecap:butt;stroke-linejoin:round;stroke-miterlimit:4;stroke-opacity:1;stroke-dasharray:none;display:inline"
       d="m 4502,2857 c 25.8604,43.1827 40.7936,89.4875 48,138 -244.8649,138.211 -680.675,189.7621 -1029,87 -11.0337,-38.6667 -15.7044,-81.3333 -11,-120"
       id="path920-7"
       inkscape:connector-curvature="0"
       sodipodi:nodetypes="cccc" />
    <path
       style="fill:none;stroke:#8a6918;stroke-width:29;stroke-linecap:butt;stroke-linejoin:round;stroke-miterlimit:4;stroke-opacity:1;stroke-dasharray:none;display:inline"
       d="m 4456,2727 c 28.9866,39.6625 44.892,89.8379 50,126 -305.2012,119.7931 -662.8584,166.8494 -1014,106 -23.7946,-44.6667 -35.9987,-93.3333 -20,-138"
       id="path918-0"
       inkscape:connector-curvature="0"
       sodipodi:nodetypes="cccc" />
    <path
       style="fill:none;stroke:#8a6918;stroke-width:29;stroke-linecap:butt;stroke-linejoin:round;stroke-miterlimit:4;stroke-opacity:1;stroke-dasharray:none;display:inline"
       d="m 3427,2657 c -3.8492,58.8386 -4.6505,113.9946 39,157 353.1673,61.5668 688.5488,3.8359 994,-91 1.0163,-46.9366 -12.175,-97.2317 -48,-137"
       id="path916-4"
       inkscape:connector-curvature="0"
       sodipodi:nodetypes="cccc" />
    <path
       style="fill:none;stroke:#8a6918;stroke-width:29;stroke-linecap:butt;stroke-linejoin:round;stroke-miterlimit:4;stroke-opacity:1;stroke-dasharray:none;display:inline"
       d="m 3380,2485 c -6.1083,48.0311 -7.2015,107.2481 15,163 373.2233,84.347 748.4682,37.9436 1024,-63 -7.7731,-39.3181 -35.5608,-81.3485 -62,-118 C 4034.0767,2530.5995 3710.7667,2586.0814 3380,2485 Z"
       id="path914-3"
       inkscape:connector-curvature="0"
       sodipodi:nodetypes="ccccc" />
  </g>
  <g
     inkscape:groupmode="layer"
     id="layer7"
     inkscape:label="Head"
     style="display:inline"
     sodipodi:insensitive="true">
    <path
       style="fill:#d4ced5;fill-opacity:1;stroke:none"
       d="m 4326.2395,2359.9676 -501.593,-66.1825 c -186.8286,125.2587 -377.9094,235.1655 -609.5748,198.5473 -206.6749,-59.4675 -413.3497,-69.3828 -620.0246,-17.4165 -101.8434,-127.2253 -196.4885,-268.8471 -289.1127,-414.5108 115.4778,-109.216 233.3711,-214.9813 285.6294,-414.5109 27.7028,-175.3798 125.7006,-329.6502 236.8633,-477.21 303.408,-353.18011 698.7439,-262.52558 1100.718,-212.48036 l 188.0973,996.21936 C 4226.4584,2088.2713 4281.302,2224.1195 4326.2395,2359.9676 Z"
       id="path1060"
       inkscape:connector-curvature="0"
       sodipodi:nodetypes="cccccccccc" />
    <path
       style="fill:#6e6773;fill-opacity:1;stroke:none"
       d="m 3164,2070 c 97.0153,135.7582 154.5993,276.2481 185,420 l 109,-17 C 3405.6216,2323.8728 3312.711,2159.9612 3164,2070 Z"
       id="path929"
       inkscape:connector-curvature="0"
       sodipodi:nodetypes="cccc" />
    <path
       style="fill:#6e6773;fill-opacity:1;stroke:none"
       d="m 3249,2021 c 133.9386,123.2815 236.7229,266.3885 312,427 l 86,-47 C 3572.9217,2258.935 3433.281,2072.2304 3249,2021 Z"
       id="path931"
       inkscape:connector-curvature="0"
       sodipodi:nodetypes="cccc" />
    <path
       style="fill:#6e6773;fill-opacity:1;stroke:none"
       d="m 3421,2033 c 140.3505,84.0008 227.1444,199.0989 285,331 l 75,-53 C 3703.1322,2181.834 3592.1837,2066.4767 3421,2033 Z"
       id="path933"
       inkscape:connector-curvature="0"
       sodipodi:nodetypes="cccc" />
    <path
       style="fill:#6e6773;fill-opacity:1;stroke:none"
       d="m 2832.5123,2438.4236 c -6.5982,-215.0867 -57.6097,-400.5645 -182.266,-536.9458 l 145.3202,-233.9901 c -55.4232,-53.7451 -112.9066,-93.0689 -174.8768,-100.9852 -22.5631,81.4835 -33.9536,161.105 -93.5961,248.7684 -59.2223,98.6142 -133.0061,172.9592 -211.8227,238.9163 C 2398.6512,2201.9998 2479.4126,2351.9947 2600.9852,2467.9803 Z"
       id="path1044"
       inkscape:connector-curvature="0"
       sodipodi:nodetypes="cccccccc" />
    <path
       style="fill:none;stroke:#35313a;stroke-width:44;stroke-linecap:butt;stroke-linejoin:round;stroke-miterlimit:4;stroke-opacity:1;stroke-dasharray:none"
       d="m 3837,2277 c -173.5641,152.2052 -415.917,260.8021 -647,207 -215.1074,-50.0825 -402.681,-51.1862 -588,-16 -114.3089,-119.3578 -209.6657,-257.6676 -292,-409 150.5012,-136.2134 260.2394,-272.4122 292,-443 32.5372,-174.759 118.5483,-312.2665 222,-440"
       id="path927"
       inkscape:connector-curvature="0"
       sodipodi:nodetypes="csccsc" />
    <path
       style="fill:#35313a;fill-opacity:1;stroke:none"
       d="m 2529,2125 c 31.1008,-3.8183 55.6088,-17.0578 74,-35 C 2616.8339,2140.5449 2560.4533,2159.9234 2529,2125 Z"
       id="path935"
       inkscape:connector-curvature="0"
       sodipodi:nodetypes="ccc" />
    <path
       style="fill:#35313a;fill-opacity:1;stroke:none"
       d="m 2509.522,2338.5508 c 114.7865,20.6764 164.0195,-23.0583 217.7889,-116.6223 C 2717.5502,2331.8267 2647.2351,2392.4589 2527.1996,2372.5422 Z"
       id="path937"
       inkscape:connector-curvature="0"
       sodipodi:nodetypes="cccc" />
    <path
       style="fill:none;stroke:#35313a;stroke-width:44;stroke-linecap:butt;stroke-linejoin:miter;stroke-miterlimit:4;stroke-opacity:1;stroke-dasharray:none"
       d="m 4105,1941 c 124.9071,135.3942 176.9756,281.194 229,427"
       id="path963"
       inkscape:connector-curvature="0"
       sodipodi:nodetypes="cc" />
  </g>
  <g
     inkscape:groupmode="layer"
     id="layer8"
     inkscape:label="Eye"
     style="display:inline"
     sodipodi:insensitive="true">
    <path
       style="fill:#ffffff;fill-opacity:1;stroke:none"
       d="m 2846,2131 836,-37 -36,-469 L 2796,1807 Z"
       id="path946"
       inkscape:connector-curvature="0"
       clip-path="url(#clipPath1088)" />
    <path
       sodipodi:type="arc"
       style="color:#000000;color-interpolation:sRGB;color-interpolation-filters:linearRGB;fill:url(#linearGradient1102);fill-opacity:1;fill-rule:nonzero;stroke:none;stroke-width:1px;marker:none;visibility:visible;display:inline;overflow:visible;enable-background:accumulate;clip-rule:nonzero"
       id="path942"
       sodipodi:cx="2986"
       sodipodi:cy="1927"
       sodipodi:rx="151"
       sodipodi:ry="268"
       d="m 3137,1927 a 151,268 0 1 1 -302,0 A 151,268 0 1 1 3137,1927 Z"
       transform="matrix(1.0590276,0.45021437,-0.54522774,0.9170599,917.54322,-1219.2897)"
       clip-path="url(#clipPath1128)" />
    <path
       sodipodi:type="arc"
       style="color:#000000;color-interpolation:sRGB;color-interpolation-filters:linearRGB;fill:#000000;fill-opacity:1;fill-rule:nonzero;stroke:none;stroke-width:1px;marker:none;visibility:visible;display:inline;overflow:visible;enable-background:accumulate;clip-rule:nonzero"
       id="path944"
       sodipodi:cx="3049"
       sodipodi:cy="1913.5"
       sodipodi:rx="94"
       sodipodi:ry="200.5"
       d="m 3143,1913.5 a 94,200.5 0 1 1 -188,0 A 94,200.5 0 1 1 3143,1913.5 Z"
       transform="matrix(0.93471842,0.47097381,-0.46672878,0.94321994,1071.6291,-1338.3505)"
       clip-path="url(#clipPath1124)" />
    <path
       sodipodi:type="arc"
       style="color:#000000;fill:#ffffff;fill-opacity:1;fill-rule:nonzero;stroke:none;stroke-width:1px;marker:none;visibility:visible;display:inline;overflow:visible;enable-background:accumulate"
       id="path1094"
       sodipodi:cx="3094.8984"
       sodipodi:cy="1909.7531"
       sodipodi:rx="34.832848"
       sodipodi:ry="84.46965"
       d="m 3129.7313,1909.7531 a 34.832848,84.46965 0 1 1 -69.6657,0 A 34.832848,84.46965 0 1 1 3129.7313,1909.7531 Z"
       transform="matrix(0.89477632,0.63982446,-0.5816586,0.81343302,1488.7302,-1639.5697)" />
  </g>
  <g
     inkscape:groupmode="layer"
     id="layer9"
     inkscape:label="Eye Clipping"
     style="opacity:0.5;display:none"
     sodipodi:insensitive="true">
    <path
       style="fill:#00ff00;fill-opacity:1;stroke:#ff0000;stroke-width:1px;stroke-linecap:butt;stroke-linejoin:miter;stroke-opacity:1"
       d="m 3644,1678 c -46.9388,197.8061 -93.2535,396.1843 -390,365 -113.2499,-1.4505 -289.9498,-3.283 -415.4499,49.2249 C 2832.9641,1928.8776 3020.7241,1749.8676 3256,1765 3396.2009,1756.3766 3525.1309,1726.6205 3644,1678 Z"
       id="path949"
       inkscape:connector-curvature="0"
       sodipodi:nodetypes="ccccc" />
  </g>
  <g
     inkscape:groupmode="layer"
     id="layer10"
     inkscape:label="Eyelashes"
     style="display:inline"
     sodipodi:insensitive="true">
    <path
       style="fill:#000000;stroke:none"
       d="m 2846,2026 c 71.4384,-139.4564 195.4643,-222.4039 379,-238 123.2369,-10.4721 246.6667,-26.5399 370,-65 -6.4051,105.0042 -40.7133,223.5754 -127.146,270.7609 -84.2965,46.0193 -183.7831,37.9618 -396.854,52.2869 175.9353,0.5662 345.1005,18.9131 431.3606,-30.1441 127.1537,-72.314 174.2495,-252.537 177.6394,-402.9037 -42.7491,34.6049 -117.2951,65.6976 -200,87 -100.5487,25.8984 -208.815,20.5237 -307,40 C 2983.1216,1777.6649 2876.2752,1882.2979 2846,2026 Z"
       id="path952"
       inkscape:connector-curvature="0"
       sodipodi:nodetypes="cscscscssc" />
  </g>
  <g
     inkscape:groupmode="layer"
     id="layer13"
     inkscape:label="Mane"
     style="display:inline"
     sodipodi:insensitive="true">
    <path
       style="fill:#ffffff;stroke:none"
       d="m 2462.6823,342.14575 487.6598,777.77245 C 3152.9528,960.70101 3383.06,945.84087 3622.616,980.58683 L 3511.1509,141.11524 C 3179.0778,121.60199 2812.1718,178.23248 2462.6823,342.14575 Z"
       id="path1179"
       inkscape:connector-curvature="0"
       sodipodi:nodetypes="ccccc" />
    <path
       style="fill:#ffffff;stroke:none"
       d="m 4051.06,935.30413 184.6141,700.14017 484.1766,-3.4832 C 4764.2229,1178.8374 4618.4954,807.91904 4319.273,503.37684 Z"
       id="path1177"
       inkscape:connector-curvature="0"
       sodipodi:nodetypes="ccccc" />
    <path
       style="fill:#6e6773;fill-opacity:1;stroke:none"
       d="m 4096.3427,1928.0403 c 94.8132,135.4658 186.3024,272.5936 226.4135,435.4105 208.845,-164.8258 372.8608,-383.4466 397.0945,-769.8059 L 4232.1908,1597.1282 Z"
       id="path1175"
       inkscape:connector-curvature="0"
       sodipodi:nodetypes="ccccc" />
    <path
       style="fill:#6e6773;fill-opacity:1;stroke:none"
       d="m 3413.6189,144.59852 c 108.5974,249.33732 327.0793,1103.60938 -27.8662,1337.58128 157.0744,-45.1376 308.5148,-112.8108 456.3103,-195.0639 L 4096.3427,973.62027 C 4205.9596,861.65769 4290.9286,715.18797 4354.1058,538.20969 4098.0227,276.52297 3771.5263,174.86644 3413.6189,144.59852 Z"
       id="path1155"
       inkscape:connector-curvature="0"
       sodipodi:nodetypes="cccccc" />
    <path
       style="fill:#6e6773;fill-opacity:1;stroke:none"
       d="m 2483.5819,325.72932 c 319.962,294.51212 585.3445,754.11448 529.4593,1159.93378 -62.2029,-79.2869 -125.1121,-141.5105 -205.5138,-229.8968 -295.5858,-192.5674 -622.8768,-339.14086 -992.7361,-383.16129 68.9094,-122.62866 190.6517,-230.1622 323.9455,-334.39532 190.3257,68.59847 339.5915,178.25682 484.1765,292.59591 C 2540.1821,697.31637 2448.0595,565.00107 2292.0013,440.67772 Z"
       id="path1153"
       inkscape:connector-curvature="0"
       sodipodi:nodetypes="cccccccc" />
    <path
       style="fill:none;stroke:#35313a;stroke-width:44;stroke-linecap:butt;stroke-linejoin:miter;stroke-miterlimit:9;stroke-opacity:1;stroke-dasharray:none"
       d="M 3880.3791,1046.7692 C 3543.9829,909.88426 3072.1837,917.59451 2814.494,1252.2831 2520.0021,1048.5477 2167.2596,907.13371 1814.7913,862.15516 1911.9432,732.94242 2021.0236,631.86911 2131.7702,534.7264 2339.228,603.68485 2514.2763,744.9742 2650.7796,865.63844 2557.4632,711.00568 2442.889,562.16102 2288.518,440.67772 2870.7902,72.83622 3597.7998,49.850171 4096.3427,339.66246 4917.7636,817.16973 4897.6572,2061.4142 4256.5738,2398.2837"
       id="path1133"
       inkscape:connector-curvature="0"
       sodipodi:nodetypes="ccccccsc" />
    <path
       style="font-size:xx-small;font-style:normal;font-variant:normal;font-weight:normal;font-stretch:normal;text-indent:0;text-align:start;text-decoration:none;line-height:normal;letter-spacing:normal;word-spacing:normal;text-transform:none;direction:ltr;block-progression:tb;writing-mode:lr-tb;text-anchor:start;baseline-shift:baseline;color:#000000;color-interpolation:sRGB;color-interpolation-filters:linearRGB;fill:#35313a;fill-opacity:1;stroke:none;stroke-width:29;marker:none;visibility:visible;display:inline;overflow:visible;enable-background:accumulate;clip-rule:nonzero;font-family:sans-serif;-inkscape-font-specification:sans-serif"
       d="m 3045.5,157.96875 -26.5938,11.59375 c 70.8074,162.18792 152.1117,486.29962 165.6832,603.60778 C 3207.8893,649.11157 3117.8051,323.58745 3045.5,157.96875 Z"
       id="path1135"
       inkscape:connector-curvature="0"
       sodipodi:nodetypes="cccc" />
    <path
       style="font-size:xx-small;font-style:normal;font-variant:normal;font-weight:normal;font-stretch:normal;text-indent:0;text-align:start;text-decoration:none;line-height:normal;letter-spacing:normal;word-spacing:normal;text-transform:none;direction:ltr;block-progression:tb;writing-mode:lr-tb;text-anchor:start;baseline-shift:baseline;color:#000000;color-interpolation:sRGB;color-interpolation-filters:linearRGB;fill:#35313a;fill-opacity:1;stroke:none;stroke-width:29;marker:none;visibility:visible;display:inline;overflow:visible;enable-background:accumulate;clip-rule:nonzero;font-family:sans-serif;-inkscape-font-specification:sans-serif"
       d="m 3907,237.375 -28.875,2.5625 c 18.9268,212.49764 -72.6737,514.70022 -116.2444,627.10507 C 3831.5167,772.19198 3926.5004,456.3133 3907,237.375 Z"
       id="path1141"
       inkscape:connector-curvature="0"
       sodipodi:nodetypes="cccc" />
    <path
       style="font-size:xx-small;font-style:normal;font-variant:normal;font-weight:normal;font-stretch:normal;text-indent:0;text-align:start;text-decoration:none;line-height:normal;letter-spacing:normal;word-spacing:normal;text-transform:none;direction:ltr;block-progression:tb;writing-mode:lr-tb;text-anchor:start;baseline-shift:baseline;color:#000000;color-interpolation:sRGB;color-interpolation-filters:linearRGB;fill:#35313a;fill-opacity:1;stroke:none;stroke-width:29;marker:none;visibility:visible;display:inline;overflow:visible;enable-background:accumulate;clip-rule:nonzero;font-family:sans-serif;-inkscape-font-specification:sans-serif"
       d="m 4006.3125,284.5625 -28.9375,2.21875 c 16.2224,213.29283 -89.2644,457.76586 -147.3934,563.42844 C 3918.1507,759.06668 4023.0645,504.81797 4006.3125,284.5625 Z"
       id="path1143"
       inkscape:connector-curvature="0"
       sodipodi:nodetypes="cccc" />
    <path
       style="fill:none;stroke:#35313a;stroke-width:44;stroke-linecap:butt;stroke-linejoin:miter;stroke-miterlimit:4;stroke-opacity:1;stroke-dasharray:none;display:inline"
       d="m 4105,1941 c 124.9071,135.3942 176.9756,281.194 229,427"
       id="path963-7"
       inkscape:connector-curvature="0"
       sodipodi:nodetypes="cc" />
  </g>
  <g
     inkscape:groupmode="layer"
     id="layer11"
     inkscape:label="Ear"
     style="display:inline"
     sodipodi:insensitive="true">
    <path
       style="fill:#d4ced5;fill-opacity:1;stroke:none"
       d="m 4088.67,2051.7241 c 146.9865,-144.8383 162.8885,-358.3399 174.8768,-573.8916 4.9252,-215.7344 -86.9168,-408.7 -192.1182,-598.52216 C 4021.1743,817.50772 3971.2387,751.1623 3908.867,862.06896 3841.0112,1017.8368 3787.8006,1176.0456 3798.0296,1344.8276 Z"
       id="path1181"
       inkscape:connector-curvature="0"
       sodipodi:nodetypes="cccccc" />
    <path
       style="fill:#dfb621;fill-opacity:1;stroke:#8a6918;stroke-width:44;stroke-linecap:butt;stroke-linejoin:miter;stroke-miterlimit:4;stroke-opacity:1;stroke-dasharray:none"
       d="m 4049.2611,1933.4976 c 68.5994,-158.5277 -34.3627,-150.292 -108.3744,-66.5025 -134.1591,151.8831 -226.0465,471.0011 12.3152,669.9507 145.5649,121.4964 457.8721,132.1158 600.9853,-115.7636 104.3241,-180.6947 -13.9333,-473.0787 -169.9507,-588.6699 -114.0269,-84.481 -144.5635,9.7057 -105.9114,41.8719 81.7632,68.043 174.3621,250.9067 115.7636,359.6059 -59.1495,109.7214 -182.2519,112.9178 -290.6404,34.4828 C 3979.4017,2178.707 4006.8123,2031.5931 4049.2611,1933.4976 Z"
       id="path1183"
       inkscape:connector-curvature="0"
       sodipodi:nodetypes="sssssssss" />
    <path
       style="font-size:xx-small;font-style:normal;font-variant:normal;font-weight:normal;font-stretch:normal;text-indent:0;text-align:start;text-decoration:none;line-height:normal;letter-spacing:normal;word-spacing:normal;text-transform:none;direction:ltr;block-progression:tb;writing-mode:lr-tb;text-anchor:start;baseline-shift:baseline;color:#000000;color-interpolation:sRGB;color-interpolation-filters:linearRGB;fill:#35313a;fill-opacity:1;stroke:none;stroke-width:44;marker:none;visibility:visible;display:inline;overflow:visible;enable-background:accumulate;clip-rule:nonzero;font-family:sans-serif;-inkscape-font-specification:sans-serif"
       d="m 3982,781.90625 c -18.1504,-1.08995 -37.0186,6.19464 -52.6562,19.75 -17.8717,15.49184 -33.841,38.54748 -50.8438,71.1875 -73.3582,140.82455 -116.1101,392.60015 -79.9215,477.63455 -2.8114,-94.9656 48.3981,-321.9392 118.9215,-457.32205 15.5898,-29.92743 29.766,-48.81409 40.6875,-58.28125 10.9215,-9.46716 16.2499,-10.14888 23.0313,-8.8125 13.5626,2.67277 40.6738,29.16582 70.7187,72.46875 286.9489,413.57265 217.2425,918.46005 36.5463,1158.86595 244.3038,-186.5941 295.8388,-756.9357 -0.4213,-1183.92845 C 4056.8723,828.515 4030.5823,790.95303 3989.75,782.90625 3987.198,782.40333 3984.5929,782.06196 3982,781.90625 Z"
       id="path955"
       inkscape:connector-curvature="0"
       sodipodi:nodetypes="ssscsssscsss" />
    <path
       style="fill:#35313a;fill-opacity:1;stroke:none"
       d="m 4037,1094 c 59.5327,120.1811 84.6148,316.7518 7,444 C 4087.7164,1400.6211 4070.9755,1221.3734 4037,1094 Z"
       id="path957"
       inkscape:connector-curvature="0"
       sodipodi:nodetypes="ccc" />
  </g>
  <!--Created by Sigma
      http://90sigma.deviantart.com/-->
</svg>
